<?xml version="1.0" encoding="UTF-8" standalone="no"?>
<!-- Created with Inkscape (http://www.inkscape.org/) -->

<svg
   width="71.435204mm"
   height="19.772243mm"
   viewBox="0 0 71.435204 19.772243"
   version="1.1"
   id="svg1"
   xml:space="preserve"
   xmlns="http://www.w3.org/2000/svg"
   xmlns:svg="http://www.w3.org/2000/svg"><defs
     id="defs1" /><g
     id="layer1"
     transform="translate(-66.715365,-208.82037)"><path
       style="fill:#ffffff;fill-opacity:1;stroke:none;stroke-width:2.824;stroke-linecap:round;stroke-linejoin:round;stroke-dasharray:none;paint-order:stroke fill markers"
       id="rect11"
       width="71.435196"
       height="19.772242"
       x="66.460236"
       y="208.94792"
       d="m 70.159558,208.94792 h 63.972772 a 3.7631039,3.7631039 45 0 1 3.7631,3.76311 v 12.43737 a 3.57176,3.57176 135 0 1 -3.57176,3.57176 l -63.972768,0 a 3.8906668,3.8906668 45 0 1 -3.890666,-3.89066 v -12.18226 a 3.6993229,3.6993229 135 0 1 3.699322,-3.69932 z"
       transform="translate(0.25512568,-0.12756284)" /><text
       xml:space="preserve"
       style="font-size:12.7px;letter-spacing:0px;writing-mode:lr-tb;direction:ltr;fill:#000000;stroke-width:0.265;stroke-dasharray:none"
       x="87.438042"
       y="222.78862"
       id="text1-5-1-4"><tspan
         id="tspan1-7-0-4"
         style="font-style:normal;font-variant:normal;font-weight:normal;font-stretch:normal;font-size:12.7px;font-family:Arial;-inkscape-font-specification:Arial;letter-spacing:0px;stroke-width:0.265;stroke-dasharray:none"
         x="87.438042"
         y="222.78862"><tspan
           style="font-weight:bold;font-size:12.7px;letter-spacing:-0.373062px"
           id="tspan2-3-9-8">F</tspan><tspan
           style="letter-spacing:-0.373062px"
           id="tspan7-4-3-6">lag</tspan></tspan></text><text
       xml:space="preserve"
       style="font-size:12.7px;letter-spacing:0px;writing-mode:lr-tb;direction:ltr;fill:#000000;stroke-width:0.265;stroke-dasharray:none"
       x="111.21667"
       y="222.81627"
       id="text1-5-8-0-1"><tspan
         id="tspan1-7-5-0-4"
         style="font-style:normal;font-variant:normal;font-weight:bold;font-stretch:normal;font-size:12.7px;font-family:Arial;-inkscape-font-specification:Arial;letter-spacing:-0.373062px;stroke-width:0.265;stroke-dasharray:none"
         x="111.21667"
         y="222.81627">F<tspan
   style="font-weight:normal"
   id="tspan9-3-0">ile</tspan></tspan></text><path
       style="fill:#000000;stroke-width:0.264999;stroke-dasharray:none"
       d="m 34.735837,87.237331 v 24.129479 h 24.839312 a 3.7978661,3.7978661 135 0 0 3.797866,-3.79787 l 0,-17.176328 a 3.1552797,3.1552797 45.000002 0 0 -3.155279,-3.155279 z"
       id="path4-0-4-0-8"
       transform="matrix(0.39385996,0,0,0.39272641,61.612254,179.03659)" /><path
       style="fill:none;stroke:#ffffff;stroke-width:1.45313;stroke-linecap:round;stroke-linejoin:round;stroke-dasharray:none"
       d="m 78.104037,221.00165 2.90726,-2.90727 -2.90726,-2.90726"
       id="path6-3-8-1-1" /><path
       style="fill:none;stroke:#ffffff;stroke-width:0.992642;stroke-linecap:round;stroke-linejoin:round;stroke-dasharray:none"
       d="m 81.919057,220.93023 h 2.13005"
       id="path7-4-7-9-0" /><rect
       style="fill:#000000;stroke:none;stroke-width:1.37578;stroke-linecap:round;stroke-linejoin:round;stroke-dasharray:none"
       id="rect7-5-8-3"
       width="1.1145167"
       height="12.152473"
       x="73.704338"
       y="-225.45671"
       transform="scale(1,-1)" /></g></svg>
